<svg xmlns="http://www.w3.org/2000/svg" width="1400" height="980"><path class="st1" d="M1085.6 178.1l-155 247.6L851 299.9s-62.2-9.5-95.1 50.7c0 0 140.2 270.5 154.8 269.2 14.6-1.2 206.2-227.3 206.2-227.3s54.3-194.2-31.3-214.4z" fill="#2d3e51"/><path class="st2" d="M1097.6 312.9c-32.4 41.7-64.9 83.4-101.6 121.3-18.6 19.2-38.2 37.4-55.6 57.7-2.7 3.2-5.5 6.6-6.6 10.6-1.1 4.1-.4 8.5.4 12.7 4.1 22.1 10.3 43.7 18.4 64.6 60.7-65.2 164.3-187.5 164.3-187.5s18.7-66.8 16.8-126.1c-15 20.2-33.1 42.8-36.1 46.7z" fill="#22303d"/><path d="M879.452 636.431a42.5 9.1-2.929 01-41.98 11.26 42.5 9.1-2.929 01-42.91-6.917 42.5 9.1-2.929 0141.98-11.26 42.5 9.1-2.929 0142.91 6.917z" class="st3" fill="#facddc"/><path class="st4" d="M879.5 636.4c0-.9-.7-1.7-1.8-2.4-5.6 3.9-21.2 7.3-39.8 8.2-19.4 1-35.9-1-41.2-4.5-1.5 1-2.2 2.1-2.2 3.1.3 5 19.5 8.2 42.9 7 23.5-1.3 42.3-6.4 42.1-11.4z" fill="#b58899"/><path class="st3" d="M838.7 634.6c-3.8.2-7-2.7-7.2-6.5l-16.1-314.3 13.8-.7 16.1 314.3c.2 3.8-2.8 7-6.6 7.2z" fill="#facddc"/><path class="st3" d="M872.6 334.7c3.3-44.2-13.2-164.5-13.2-164.5l-3.2-1.1c-32.7-11.5-68.8-7.8-98.3 10.2 0 0-7.3 118.4 10.4 176.2 5.6 18.3 23.1 30.2 42.1 28.6l22.1-1.8c17.8-1.5 32.8-13.9 37.3-31.1 1.4-4.8 2.3-10.3 2.8-16.5z" fill="#facddc"/><path class="st5" d="M771.8 194.5c8.9 2.1 18.3 1.1 27.4 0 13-1.6 26.2-3.4 38.6-7.8 7.9-2.8 15.6-6.7 22.2-11.9-.4-3-.6-4.7-.6-4.7l-3.2-1.1c-32.7-11.5-68.8-7.8-98.3 10.2 0 0-.2 2.8-.4 7.7 3.9 3.8 9.1 6.4 14.3 7.6z" fill="#ea9bb9"/><path class="st6" d="M872.6 334.7c.9-12.7.3-31.7-1.2-52.4.2 2.6.3 5.1.5 7.6-4.1 1.8-8.5 3-12.8 4.1-21.8 5.5-44.2 9.3-66.7 8.3-11.4-.5-22.9-2.4-33.8-5.8 1.7 21.8 4.7 42.8 9.7 59.1 5.6 18.3 23.1 30.2 42.1 28.6l22.1-1.8c17.8-1.5 32.8-13.9 37.3-31.1 1.4-4.9 2.3-10.4 2.8-16.6z" fill="#fec83d"/><path class="st7" d="M792.4 302.3c22.5 1.1 44.9-2.8 66.7-8.3 4.3-1.1 8.7-2.3 12.8-4.1-.3-5.1-.7-10.3-1.1-15.6-36.4-14.2-79-11.1-113.1 7.6.3 4.8.6 9.7 1 14.5 10.8 3.5 22.3 5.4 33.7 5.9zm-14.5 18.6l-.6.1c-1.8.4-3.2 2.3-2.7 4.2.5 1.8 2.3 3.1 4.2 2.7l.6-.1c1.8-.4 3.2-2.3 2.7-4.2-.5-1.9-2.3-3.1-4.2-2.7zm16.6 19.4c-4.4 1-2.9 7.8 1.5 6.9 4.4-1 3-7.8-1.5-6.9zm19.5-13.7c-4.4 1-2.9 7.8 1.5 6.9 4.4-1 2.9-7.8-1.5-6.9zm10.2-6.2c-.6-.1-1.2-.1-1.8-.2-1.8-.2-3.7 1.5-3.7 3.3 0 2 1.4 3.5 3.3 3.7.6.1 1.2.1 1.8.2 1.8.2 3.7-1.5 3.7-3.3.1-2-1.3-3.5-3.3-3.7zm-12.9-4.5c-1.1-.5-2.2-1.1-3.3-1.6-.9-.4-1.7-.7-2.6-.5-.8.2-1.8.8-2.2 1.5-.5.8-.7 1.7-.5 2.6.2.8.7 1.8 1.5 2.2 1.1.5 2.2 1.1 3.3 1.6.9.4 1.7.7 2.6.5.8-.2 1.8-.8 2.2-1.5.5-.8.7-1.7.5-2.6-.2-.9-.7-1.8-1.5-2.2zm39.1 20.5c-4.4 1-2.9 7.8 1.5 6.9 4.4-1 2.9-7.8-1.5-6.9zm-31.4 24l-2.3.5c-1.8.4-3.2 2.3-2.7 4.2.5 1.8 2.3 3.1 4.2 2.7l2.3-.5c1.8-.4 3.2-2.3 2.7-4.2-.5-1.9-2.3-3.1-4.2-2.7zm39.1.4c-4.4 1-2.9 7.8 1.5 6.9 4.4-1 2.9-7.9-1.5-6.9z" fill="#ffdf99"/><path class="st8" d="M1401.1 190.1S1212.4 156 1085.5 178c0 0-55.9 471.3-35 801.9h349.1l1.5-789.8z" fill="#3e576d"/><path class="st2" d="M1181.3 694.4c-45.9-8.9-93.4-22.1-131.9-47.2-4.4 112.2-5.4 229.4 1.1 332.8h349.1l.5-287.9c-29.7 6.7-59.5 12.3-89.8 14-43.2 2.4-86.5-3.5-129-11.7z" fill="#22303d"/><path class="st9" d="M1360.2 183.8c-44.4-6.2-118.7-14.4-190.3-13l57.6 487.4 132.7-474.4z" fill="#ffeecb"/><path class="st10" d="M1248.1 209.7c-11 103.4-19.2 207.1-24.4 311-1.5 29.3-2.7 58.7-3.7 88.1-.2 4.5 6.8 4.5 7 0 3.6-103.9 10-207.8 19.4-311.3 2.7-29.3 5.6-58.5 8.7-87.7.5-4.6-6.5-4.6-7-.1zm10.3-38c-20.2-.9-68-1.3-88.5-.9l7.2 61.1c19.5-18.7 64.7-38.9 81.3-60.2zm0 1.5c24.9 34.1 50.4 67.8 76.5 101l25.3-90.5c-25.9-3.5-62-7.8-101.8-10.5z" fill="#f9ae90"/><path d="M1169.9 170.8l64.8 499.2-94.9-256.7 36-26.3-58.9-118.2z" class="st2" fill="#22303d"/><path d="M1338.9 178.1l-111.5 480.1 156.9-245L1341 382l58.7-119.9 1.4-72z" class="st2" fill="#22303d"/><path d="M1245.4 980l-18-170h10.2l20 170z" class="st11" fill="#19232b"/><path class="st2" d="M1207.2 59.6c-8.9-8.9-15.6-20.1-19.2-32.2-1.5-5-2.2-11.2 1.7-14.7 1.3-1.2 3-1.9 4.7-2.6 15.4-5.8 32.5-4.9 48.9-3.1 12.6 1.3 25.1 3.2 37.5 5.4 9.7 1.8 19.4 3.9 28 8.6 8.6 4.8 16 12.6 18 22.2 7.4-.8 13.8 9.7 15.2 17.1 4 21.4-6.8 42.5-19 60.6-3.4 5-6.9 10.1-8.5 15.9-1.6 5.8-.7 12.7 3.7 16.8.7.7 1.6 1.4 1.5 2.4 0 .7-.5 1.2-.9 1.7-6.4 6.7-16.8 7.2-26.1 6.9-3-.1-6.1-.3-8.9-1.6-3.7-1.8-6.2-5.3-8.2-8.9-7.1-12.8-9.5-27.6-13.4-41.7s-10.1-28.6-22.2-36.8c-8.7-6-22.4-14.7-32.8-16z" fill="#22303d"/><path class="st6" d="M1210 42.7s-32.1 101.1 27.6 94.6l-15.2 50.3 32.4 1.7 54.6-10.2-6.4-44.3s39.5-4.1 35.3-40.7c-4.2-36.6-23.9-11-23.9-11l-14.2 32.5-6-42.2 7.2-17.3s-12.9 7.7-36.3 10.4l9.5-15.8s-40 18.9-64.6-8z" fill="#fec83d"/><path class="st12" d="M1216.7 128.3c-2.8-.6-5.7-1.5-8.3-2.7 5.4 8.3 14.5 13.3 29.2 11.7l-1.7 5.6c14-2.7 27.5-8.5 39.1-16.9-18.8 5.9-39.1 6.7-58.3 2.3z" fill="#af8425"/><path d="M1232 155.6l22.7 33.8-59.8 59.4 15.1-82.5zm77.3-3.8l-54.6 37.6 28.3 69.8 41.7-79.9z" class="st10" fill="#f9ae90"/><path class="st12" d="M1320.2 96.9c1.7-1.4 3.7-2.8 5.9-2.5.7.1 1.5.4 1.9 1 .2.4.3.8.4 1.2.9 5.4-1.5 11-5.4 14.8-2.9 2.8-13.1 10.2-12.5 2 .4-6 5.3-12.6 9.7-16.5z" fill="#af8425"/><path class="st10" d="M226.8 290s58.9-6.6 77.9 27.9 32.6 335.6 32.6 335.6 22.5 123.7 14.2 232.1l-46-14.1L226.8 290z" fill="#f9ae90"/><path class="st13" d="M0 311s196.6-41 239.7-23.8l15.5 129.1s65 47.6 50.5 87.1-35.5 49.3-35.5 49.3L385.9 980H0V311z" fill="#f3776b"/><path class="st10" d="M186.8 487.7l9.3-185.7c.3-6.3.6-12.6.9-18.8-54.9 1.5-139.7 16.7-177.6 24 68.2 46.9 125.8 109.1 167.4 180.5z" fill="#f9ae90"/><path class="st14" d="M43 778.9c14 7.3 30.1 9.7 45.9 9.8 42.3.2 83.2-15.9 119.5-37.7 34.1-20.5 64.9-46.2 96.4-70.5l-21.6-79.9c-32.3 9.3-64.4 18.8-96.6 28.5-32.6 9.9-65.5 20-99.5 21.8-30.4 1.5-62.2-4.4-87.1-21.6v106.5c1.7 2.5 3.5 5 5.3 7.4 10.3 14.1 22.2 27.6 37.7 35.7z" fill="#ba504a"/><path d="M527.227 710.026a48.5 10.4 21.125 0141.492 27.18 48.5 10.4 21.125 01-48.989-7.777 48.5 10.4 21.125 01-41.492-27.181 48.5 10.4 21.125 0148.989 7.778z" class="st3" fill="#facddc"/><path class="st4" d="M568.8 737.2c.4-.9.1-2.1-.7-3.4-7.6 1.4-25.5-2.3-45.3-10-20.6-8-36.9-17.7-40.8-23.8-2 .4-3.3 1.1-3.7 2.2-2.1 5.4 16.5 17.6 41.5 27.2 25 9.7 46.9 13.2 49 7.8z" fill="#b58899"/><path class="st3" d="M527.2 716.4c-4.1-1.6-6.1-6.1-4.5-10.2l129.4-334.8 14.7 5.7-129.4 334.8c-1.6 4.1-6.1 6.1-10.2 4.5z" fill="#facddc"/><path class="st3" d="M701.9 419.9c24-44.6 62.8-177.5 62.8-177.5l-2.8-2.6c-28.6-27.2-68-40.1-107.2-35.1 0 0-62.6 119.9-71.1 188.4-2.7 21.6 10 42.2 30.6 49.4l23.9 8.4c19.2 6.7 40.7.8 53.3-15.1 3.5-4.4 7.1-9.7 10.5-15.9z" fill="#facddc"/><path class="st5" d="M685.4 234c14 8.6 30.1 13 46.1 16.4 9.5 2.1 19.7 3.7 29.6 3.7 2.2-7.3 3.5-11.6 3.5-11.6l-2.8-2.6c-27.6-26.2-65-39-102.7-35.5 5 12.2 14.9 22.5 26.3 29.6z" fill="#ea9bb9"/><path class="st6" d="M701.9 419.9c6.9-12.8 15-32.9 23.1-55.1-1 2.7-2 5.5-3 8.1-5.1-.1-10.2-.9-15.2-1.7-25.3-4.4-50.4-10.8-73.3-22.4-11.6-5.9-22.7-13.1-32.5-21.8-8.3 23.5-15 46.8-17.4 66-2.7 21.6 10 42.2 30.6 49.4l23.9 8.4c19.2 6.7 40.7.8 53.3-15.1 3.5-4.3 7.1-9.6 10.5-15.8z" fill="#fec83d"/><path class="st15" d="M659.9 359.8c-9.1 30.2-13.3 61.9-12.2 93.4 16.4 2.2 33.1-4.1 43.7-17.4 3.5-4.4 7.1-9.7 10.5-16 6-11.2 13-28.1 20.1-47-5.1-.1-10.2-.9-15.2-1.7-15.9-2.7-31.7-6.2-46.9-11.3z" fill="#b78b29"/><path class="st16" d="M633.4 348.8c22.9 11.5 48 18 73.3 22.4 5 .9 10.1 1.7 15.2 1.7 2-5.4 4.1-11.1 6.1-16.8-31.3-31.7-77.1-48.3-121.4-44.6-2 5.2-3.9 10.4-5.7 15.5 9.8 8.7 20.9 16 32.5 21.8z" fill="#ef7c2e"/><path class="st9" d="M617.1 443.6s-14.4-41.7-42.5-17.9-114.3 76.2-114.3 76.2c-64.1 19-280.7 80.4-369.2 68.7L-.3 336.1V675s30.9 62.4 91.4 51.8c54-9.5 319.1-131 375.2-156.8 53.9 28.2 70.7 8.3 70.7 8.3l8.9 21.5c18.1 10.2 36.5-1.8 36.5-1.8l14.3-15.8 39.5-16.3.4-15.1 15.7-17.9L658 511s10.7-14.4 11.5-24.3-52.4-43.1-52.4-43.1z" fill="#ffeecb"/><path class="st10" d="M599.6 451.8c-1.5 1.1-3.3 1.7-5.1 2.3-1.9.7-3.9 1.4-5.8 2.1 8.5.4 17.3-1 24.5-5.5 2.4-1.5 4.6-3.3 6.5-5.5-1.6-1-2.6-1.6-2.6-1.6s-6-17.5-17.9-23.3c1.8 4.9 4.2 9.5 5.4 14.6 1.3 6 .2 13.3-5 16.9zm49.6 13.6c-8.7-2.9-17.7-5-26.7-7 10.3 8.3 19.7 17.7 28 28 1.9 2.4 3.8 4.8 5.1 7.5 1.5 2.9 2.3 6.1 3 9.3.4 1.9.7 3.7 1 5.6 3-4.4 9.3-14.5 9.9-22.1.5-4.3-9.2-12.9-20.3-21.3zm-23.9 29.8c-6-3.8-11.9-7.7-17.9-11.5 9.9 11.9 19.8 23.7 28.4 36.6 3 4.5 5.8 9.1 7.2 14.3.7 2.5 1.1 5.1 1.2 7.7l8.2-9.3 3.1-12c-7.3-10.7-19-18.6-30.2-25.8zm.4 47.5c-13.6-12.3-27.2-24.7-40.8-37 7.8 11.6 14.8 23.8 20.9 36.4 1.8 3.8 3.6 7.6 4 11.8.4 4.6-1 9.2-2.3 13.7-1.2 3.9-2.4 7.9-3.8 11.8l32.6-13.5.2-8c-.6-2.3-1.5-4.4-2.8-6.4-2.1-3.4-5.1-6.1-8-8.8zM76.9 635.2c1.1-25.2 15.3-49 36-63.3-7.9-.1-15.2-.6-21.8-1.5l-4.8-12.3c-12.6 23.4-16.3 51.6-9.4 77.1z" fill="#f9ae90"/><path class="st10" d="M555.5 569c.5-8.6-9.4-13.4-17.7-15.7-16.9-4.7-34.4-8.5-51.9-7.6-23.8 1.3-46.2 11.2-68 21-33.4 15.1-66.9 30.1-100.3 45.2-48.1 21.7-96.5 43.4-147.3 57.8-34.5 9.8-73.6 15.5-104.4-2.8-14-8.3-25-21-33.9-34.6C17.4 610 7.9 585.2-.3 559.7V675s30.9 62.4 91.4 51.8c54-9.5 319.1-131 375.2-156.8 53.9 28.2 70.7 8.3 70.7 8.3l2.2 5.3c1.5-8.1 8.2-15.6 16.3-14.6z" fill="#f9ae90"/><path class="st6" d="M375 586.1c14.3-6.5 28.7-12.9 43-19.4 10.1-4.6 20.4-9.1 30.8-12.9-3.4-8-5.4-16.6-5.7-25.3-.3-7.6.7-15.2 2.8-22.5-19.2 5.6-45.7 13-75.8 20.9-2 7.2-3 14.7-3.1 22.2-.1 12.8 2.7 25.5 8 37z" fill="#fec83d"/><path class="st16" d="M417.9 566.8c-14.3 6.5-28.7 12.9-43 19.4 3.2 7.1 7.4 13.8 12.4 19.9 31.2-14.1 57.2-26 72.9-33.2-4.8-5.7-8.7-12.1-11.5-18.9-10.4 3.6-20.7 8.2-30.8 12.8z" fill="#ef7c2e"/><path class="st10" d="M590.6 466.4c.1 2.1-.5 4.2-1.2 6.2-3.2 9.2-8.7 18.6-17.8 21.9 8.5-1.6 15.5-7.4 21.2-13.8 2.6-2.9 5-5.9 6.1-9.6 1.1-3.7.7-8-1.9-10.8-1.3-1.3-7.7-5.5-9.4-3.7-1.8 2.3 2.9 7.2 3 9.8z" fill="#f9ae90"/><path class="st17" d="M86.8 221.8c45.6-8.9 67-46.9 91.2-81.8 21.1-30.4 48.6-57.7 28.9-98.4C198 23 181.4 9.9 163 0H-.3v195.7c24.6 20.2 56.3 32.1 87.1 26.1z" fill="#383838"/><path class="st18" d="M96.9 84.8c-23.5-2-47-9.2-66-23.3C16.9 51.1 5.6 36.6-.3 20.3v175.4c24.6 20.2 56.3 32.1 87.1 26 45.6-8.9 67-46.9 91.2-81.8 19.2-27.6 43.6-52.7 33.2-87.6-32.7 23.8-74 35.9-114.3 32.5z" fill="#282828"/><path class="st10" d="M197.1 90.7c-29.3 37.5-103.9 22.5-103.9 22.5 15.3 22.6 0 39.3 0 39.3C85 140.1 62.3 129 62.3 129c11.2 23.4 1.9 49 1.9 49l-33.4-56.5c-27.1-1.9-22.7 62.2-7.5 69.5s29-3.5 29-3.5l17.2 97.9c2.5 14.5 12.3 26.8 25.8 32.6l14.3 6.1c17.4 7.5 37.3-2.9 41.2-21.5 1.4-6.5 1.2-13.3-.5-19.8l-12.1-47s14.6 11.9 39.2 9.4c35.5-3.6 19.7-154.5 19.7-154.5z" fill="#f9ae90"/><path class="st13" d="M31.1 150.1c-1.3.1-2.3 1.2-3.1 2.3-2.5 3.4-4.7 7.2-5.1 11.4-.4 4.2 1.8 8.9 5.7 10.3 5.8 2 14.1-4.3 14.9-10.2.5-4.8-7.2-14.1-12.4-13.8zm65.8 62.4c3.4 15.5 10 30.3 19.3 43.1 3.1 4.2 6.6 8.4 11.3 10.8 4.7 2.4 10.2 2.9 15.5 3.2 1.3.1 2.5.2 3.8.2l-8.6-33.6c-5.3-4.4-11.6-7.8-17.7-11.1-7.9-4.2-15.8-8.4-23.6-12.6z" fill="#f3776b"/><path class="st7" d="M609.5 366.3c-4.5 0-4.5 7 0 7s4.5-7 0-7zm17.6 7.4c-4.5 0-4.5 7 0 7 4.6 0 4.6-7 0-7zm5.6 14.9c-4.5 0-4.5 7 0 7s4.5-7 0-7zm-29.7 1.8h-.9c-1.8 0-3.6 1.6-3.5 3.5.1 1.9 1.5 3.5 3.5 3.5h.9c1.8 0 3.6-1.6 3.5-3.5-.1-1.9-1.5-3.5-3.5-3.5zm22.3 16.7c-4.5 0-4.5 7 0 7s4.5-7 0-7zm17.6-11.1c-4.5 0-4.5 7 0 7s4.6-7 0-7z" fill="#ffdf99"/><path class="st19" d="M641.1 280.8c-4.5 0-4.5 7 0 7s4.5-7 0-7zm18.6-13.9c-4.5 0-4.5 7 0 7s4.5-7 0-7zm13.9-1.9c-4.5 0-4.5 7 0 7s4.5-7 0-7zm7.4 16.8c-4.5 0-4.5 7 0 7s4.5-7 0-7zm-14.8 15.7c-4.5 0-4.5 7 0 7s4.5-7 0-7z" fill="#fff3f8"/><path class="st20" d="M942.2 565.6c-5.4-5.9-20.1-16.3-27.6-9.7-3.4 3-4.5 8.5-8.4 11.8-4.2 3.6-9.2 6.4-14 9-19.8 10.6-42.8 15.8-59.9 31.1-2.7 2.4-5.2 6.8-2.1 9.1.9.7 2.1.9 3.3.8 32.6-2.9 63.6-14.3 94.2-25.7-12.7 10.7-28.5 16.7-43.4 24-12.3 6-24.5 13.5-32.7 24.2-2.7 3.6.1 8.7 4.6 8.3 3.4-.3 6.9-1.1 10.3-2 27.4-7.4 53.8-18.3 78.5-32.2 2.4-1.4 4.9-2.8 6.5-5.1 1.8-2.5 2.2-5.7 2.4-8.8.5-12.5-3.2-25.5-11.7-34.8z" fill="#ad2e21"/><path class="st21" d="M905.4 590c-1.7-5.8-4-11.5-6.7-16.9-2.1 1.3-4.3 2.5-6.4 3.6-15.6 8.3-33.1 13.3-48.2 22.5 14.7 7.3 32.1 9.3 48.1 5.4 3.6-1.2 7.2-2.4 10.8-3.7.6-.3 1.2-.7 1.7-1.3 2.3-2.3 1.6-6.3.7-9.6z" fill="#7f1813"/><path class="st20" d="M905.7 452c-20-3.9-42.2-4.5-58.9 7.1-5.1 3.6-9.7 8.7-10.3 14.9-.4 4 .9 8 2.2 11.8 4 11.9 8.7 24.8 19.4 31.4 6.7 4.1 14.7 5.1 22.5 5.4 3.6.2 7.4.2 10.7-1.2 3.4-1.4 6.2-4.5 6.3-8.1.1-4.8-4.7-9.1-3.7-13.8.9-4.4 6.3-6.4 10.8-6 6.6.5 12.4 4.1 18.7 6.2 6.3 2 14.2 2.1 18.3-3.1 5.1-6.3 5.4-24.9.6-31.8-6.2-9.1-26.8-10.9-36.6-12.8z" fill="#ad2e21"/><path d="M997.565 769.159a48.502 10.4-10.9 01-45.66 19.384 48.502 10.4-10.9 01-49.594-1.041 48.502 10.4-10.9 0145.66-19.385 48.502 10.4-10.9 0149.594 1.042z" class="st3" fill="#facddc"/><path class="st4" d="M997.5 769.1c-.2-1-1-1.8-2.4-2.5-5.7 5.3-22.8 11.6-43.7 15.6-21.7 4.2-40.6 4.6-47.2 1.4-1.5 1.4-2.2 2.7-2 3.9 1.1 5.7 23.3 6.1 49.6 1.1 26.4-5.1 46.8-13.8 45.7-19.5z" fill="#b58899"/><path class="st3" d="M951.2 773.5c-4.3.8-8.4-2-9.2-6.2l-67.9-352.5 15.5-3 67.9 352.5c.8 4.3-2 8.4-6.3 9.2z" fill="#facddc"/><path class="st3" d="M942 429.5c-3.3-50.5-40.9-183.8-40.9-183.8l-3.8-.8c-38.7-7.9-78.9 2.1-109.4 27.1 0 0 10.5 134.9 39.6 197.4 9.2 19.8 30.9 30.5 52.1 25.7l24.7-5.6c19.8-4.5 34.9-20.9 37.2-41 .8-5.5 1-11.9.5-19z" fill="#facddc"/><path class="st6" d="M942 429.5c-.9-14.5-4.7-35.9-9.6-58.9.6 2.9 1.2 5.7 1.8 8.5-4.4 2.6-9.1 4.7-13.8 6.6-23.7 9.7-48.5 17.5-74 19.9-13 1.2-26.2.9-39.1-1.2 5.4 24.4 12.1 47.6 20.3 65.2 9.2 19.8 30.9 30.5 52.1 25.7l24.7-5.6c19.8-4.5 34.9-20.9 37.2-41 .7-5.7.9-12.1.4-19.2z" fill="#fec83d"/><path class="st16" d="M846.3 405.6c25.5-2.4 50.3-10.2 74-19.9 4.7-1.9 9.5-4 13.8-6.6-1.2-5.7-2.4-11.5-3.7-17.5-43.3-10.3-90.9-.1-126.6 26.5 1.1 5.4 2.2 10.8 3.4 16.2 12.9 2.2 26.2 2.5 39.1 1.3z" fill="#ef7c2e"/><path class="st20" d="M842.1 553.6c-6.3 2.5-12.8 5.1-17.5 10-4.7 4.9-7.1 12.6-3.9 18.5 2.6 4.7 7.9 7.1 13 8.9 10.9 3.9 22.3 6.7 33.8 8.2 8.2 1.1 16.7 1.5 24.6-.9 4.8-1.5 10-5 10-10 0-6.3-7.5-9.5-13.8-9.9-6.2-.4-13.3.2-17.9-4.1 3.2-4.3 9.2-4.9 14.4-5.5 6.5-.7 12.9-1.9 19.2-3.5 3-.8 6.2-1.8 7.9-4.3 2-3 1.3-7.1-.4-10.2-3.4-6.3-10.3-10.1-17.3-11.6-18.1-3.9-35.4 7.9-52.1 14.4z" fill="#ad2e21"/><path class="st22" d="M1092.4 575.9s-51.8-27.3-74.7-54.4c-22.9-27.1-61.4-57-79.1-58.2L924.3 480s11 27.2-12.8 34.6c0 0-113.9-4.4-101.3 20.1 12.7 24.5 97.5 27.9 97.5 27.9s12.8 97.8 104 71.1c0 0 28.8 25.8 57.2 29-.1.1 14.6-78.8 23.5-86.8z" fill="#ec5b44"/><path class="st23" d="M971.2 489.9c8.3 9.3 15.4 19.8 24.7 28.1 10.7 9.4 23.8 15.4 37.6 19.1-6-5-11.5-10.3-15.9-15.5-22.4-26.6-59.7-55.7-77.9-58.1 11.7 7.1 22.4 16.1 31.5 26.4z" fill="#ff8073"/><path class="st20" d="M1070.2 563.1c-16.5 14.5-28.4 34.1-33.3 55.5-10.1-3.9-19-9.8-26.1-18-10.4 5.2-21.8 8.8-33.5 9-11.6.2-23.6-3.3-32.4-10.9-6.3-5.4-10.8-12.7-14.5-20.2-6.6-13.4-11.7-25.3-13.4-40.2-17.4 7.9-37.5 4.6-56.5 3.6-15-.8-30.5 0-44.7-4.8-2-.7-4-1.5-5.8-2.6.1.1.1.3.2.4 12.7 24.5 97.5 27.9 97.5 27.9s12.8 97.8 104 71.1c0 0 28.8 25.8 57.2 29 0 0 14.7-78.9 23.6-86.9-.1-.1-9.6-5.1-22.3-12.9z" fill="#ad2e21"/><path class="st17" d="M1101.3 568c-5.5-2.8-12.1-2.2-16.9 1.7-18 14.6-56 54-31.8 111.7 1.7 4.1 4.9 7.4 9 9.2 41.8 18.9 287.4 129.9 338.5 144.8V657.9c-.1 0-212.8-45.6-298.8-89.9z" fill="#383838"/><path class="st24" d="M1122.5 593.2c3.1-3.9 6.6-7.7 10.5-10.9-11.8-4.7-22.5-9.5-31.7-14.3-5.5-2.8-12.1-2.2-16.9 1.7-18 14.6-56 54-31.8 111.7 1.7 4.1 4.9 7.4 9 9.2 7.9 3.6 23 10.4 42.7 19.2-14-38.6-7.3-84.4 18.2-116.6z" fill="#d5d3ea"/><path class="st25" d="M1122.5 593.2c-.1.1-.1.2-.2.3 8.2 3.3 16.5 6.5 24.8 9.4 34 12.1 69.1 20.8 103.5 31.6 27.4 8.6 54.4 18.6 82 26.7 22.1 6.4 44.6 11.6 67.4 15.5V658s-169.4-36.3-267-75.7c-3.9 3.2-7.4 7-10.5 10.9z" fill="#565656"/><path class="st26" d="M1122.3 593.5c.1-.1.1-.2.2-.3 3.1-3.9 6.6-7.7 10.5-10.9-2.9-1.2-5.7-2.3-8.5-3.5-.1 0-.1-.1-.2-.1-1.3-.6-2.6-1.1-3.9-1.7-.1-.1-.2-.1-.4-.2-1.3-.6-2.6-1.1-3.8-1.7h-.1c-1.2-.6-2.5-1.1-3.7-1.7-.1 0-.2-.1-.3-.1-1.2-.5-2.3-1.1-3.4-1.6l-.6-.3c-1.1-.5-2.2-1-3.2-1.6-.2-.1-.3-.2-.5-.3-1.1-.5-2.2-1.1-3.2-1.6-5.5-2.8-12.1-2.2-16.9 1.7-1.9 1.6-4.1 3.4-6.4 5.5 5.6 2.3 11.2 4.6 16.7 6.9 9.3 4 18.5 7.8 27.7 11.5z" fill="#e4e3ff"/><path class="st27" d="M1104.2 709.8c-1.1-.5-2.1-1-3.2-1.4 83.6 37.6 257.1 114.8 299 127v-55.1c-104.4-32.5-205.7-75-302-126.8-2.2 19-.2 38.4 6.2 56.3z" fill="#1c1c1c"/><path class="st28" d="M1064.2 691.8l1.2.6c.4.2.7.3 1.1.5.1 0 .2.1.3.1 1.1.5 2.4 1.1 3.7 1.7.2.1.5.2.7.3 1.3.6 2.7 1.2 4.2 1.9.2.1.5.2.8.3 1.4.6 2.9 1.3 4.5 2 .3.1.7.3 1 .4.5.2 1 .4 1.5.7.5.2 1.1.5 1.6.7l2.1.9.6.3c1.9.9 3.9 1.8 5.9 2.7.1.1.3.1.4.2 1 .4 2 .9 3 1.4.2.1.4.2.7.3.8.4 1.7.7 2.5 1.1.3.1.6.3 1 .4 1.1.5 2.1 1 3.2 1.4-6.4-17.9-8.4-37.4-6.2-56.3-17.1-9.2-34.1-18.7-50.9-28.5-4 16-3.6 34.9 5.4 56.3 1.7 4.1 4.9 7.4 9 9.2.4.2.8.4 1.2.5l.6.3c.3.3.6.4.9.6z" fill="#9796aa"/><path class="st23" d="M837.1 520.4c-6.4.2-12.8 2.8-17.4 7.3-.8.8-1.6 1.7-1.7 2.8-.1 1.2.7 2.4 1.7 3.1s2.3 1 3.5 1.2c5.8 1 11.6.8 17.5.6 1.3 0 2.7-.1 4-.3.3-.1.7-.1.9-.4.2-.3.2-.6.3-1 .1-1.9.1-3.9.2-5.8 0-1.7.1-3.4-.6-4.9-.7-1.5-2.3-2.7-4-2.3" fill="#ff8073"/><path class="st5" d="M852.5 279.5c18.8-4.7 36.2-14.2 50.5-27.3-1.1-4.1-1.8-6.5-1.8-6.5l-3.8-.8C858.7 237 818.5 247 788 272c0 0 .1 1.9.5 5.3 20.5 6.7 43 7.5 64 2.2z" fill="#ea9bb9"/><path class="st7" d="M826.7 417.6c-6.4 0-6.4 10 0 10s6.4-10 0-10zm24.2-3.8c-6.4 0-6.4 10 0 10 6.5 0 6.5-10 0-10zm-11.4 26.4c-.9-.9-2.3-1.5-3.5-1.5-1.3.1-2.6.5-3.5 1.5-.9 1-1.5 2.2-1.5 3.5v1.2c0 1.3.6 2.6 1.5 3.5.9.9 2.3 1.5 3.5 1.5 1.3-.1 2.6-.5 3.5-1.5.9-1 1.5-2.2 1.5-3.5v-1.2c0-1.3-.5-2.6-1.5-3.5zm20.8 23.4c-6.4 0-6.4 10 0 10s6.4-10 0-10zm28.6 3.1c-6.4 0-6.4 10 0 10s6.4-10 0-10zm-25.5-22.4c-6.4 0-6.4 10 0 10s6.4-10 0-10zm29.8 1.9c-6.4 0-6.4 10 0 10 6.5 0 6.5-10 0-10zm9.8-27.8c-1-.9-2.2-1.5-3.5-1.5h-1.2c-1.3 0-2.6.6-3.5 1.5-.9.9-1.5 2.3-1.5 3.5.1 1.3.5 2.6 1.5 3.5 1 .9 2.2 1.5 3.5 1.5h1.2c1.3 0 2.6-.6 3.5-1.5.9-.9 1.5-2.3 1.5-3.5-.1-1.3-.5-2.6-1.5-3.5zm-22.8-2.1c-6.4 0-6.4 10 0 10s6.4-10 0-10zm30.5-17.4c-6.4 0-6.4 10 0 10s6.4-10 0-10zm19.9 26.7c-6.4 0-6.4 10 0 10s6.4-10 0-10zm-11.8 29.3c-6.4 0-6.4 10 0 10s6.4-10 0-10z" fill="#ffdf99"/><path class="st29" d="M809.8 282.1c5.2 54.2 17.9 107.7 37.7 158.5.3-16-3.8-31.7-6.5-47.5-3.8-21.6-5.2-43.6-6.6-65.5-.9-15-1.9-29.9-2.8-44.9-7.3.5-14.6.3-21.8-.6z" fill="#fff8fb"/><path d="M684.139 763.354a48.499 10.4 9.346 0146.166 18.138 48.499 10.4 9.346 01-49.544 2.385 48.499 10.4 9.346 01-46.166-18.138 48.499 10.4 9.346 0149.544-2.385z" class="st3" fill="#facddc"/><path class="st4" d="M730.3 781.4c.2-1-.3-2.1-1.4-3.2-7.1 3-25.4 2.9-46.4-.5-21.8-3.6-39.7-9.8-44.8-15-1.9.8-3 1.8-3.2 2.9-.9 5.7 19.7 13.8 46.2 18.2 26.5 4.4 48.7 3.3 49.6-2.4z" fill="#b58899"/><path class="st3" d="M685.4 769.6c-4.3-.7-7.2-4.8-6.5-9l58.3-354.2 15.5 2.6-58.3 354.2c-.7 4.2-4.8 7.1-9 6.4z" fill="#facddc"/><path class="st3" d="M795.8 443.6C810.2 395.1 821 257 821 257l-3.3-2c-33.6-20.8-74.7-25.3-112.1-12.4 0 0-36.8 130.2-31.2 198.9 1.8 21.7 18.4 39.3 40 42.1l25.1 3.3c20.1 2.7 40-7.5 49.1-25.6 2.8-5 5.2-10.9 7.2-17.7z" fill="#facddc"/><path class="st19" d="M717.5 262.9c9.4 4.6 20.1 5.7 30.5 6.7 14.9 1.4 30 2.5 44.9.7 9.5-1.2 19-3.7 27.7-7.9.3-3.4.4-5.4.4-5.4l-3.3-2c-33.6-20.8-74.7-25.3-112.1-12.4 0 0-.9 3-2.3 8.4 3.6 5.1 8.7 9.2 14.2 11.9z" fill="#fff3f8"/><path class="st6" d="M795.8 443.6c4.1-13.9 8-35.3 11.4-58.6-.4 2.9-.8 5.8-1.3 8.6-5 1-10.2 1.2-15.3 1.4-25.6.9-51.6-.3-76.3-6.9-12.6-3.4-24.9-8.2-36.2-14.7-3.4 24.7-5.1 48.9-3.5 68.2 1.8 21.7 18.4 39.3 40 42.1l25.1 3.3c20.1 2.7 40-7.5 49.1-25.6 2.6-5.1 5-11 7-17.8z" fill="#fec83d"/><path class="st7" d="M714.3 388c24.8 6.6 50.7 7.8 76.3 6.9 5.1-.2 10.3-.4 15.3-1.4.9-5.8 1.7-11.7 2.6-17.7-37.1-24.7-85.3-31.5-127.9-18.9-.9 5.5-1.7 10.9-2.4 16.4 11.2 6.5 23.5 11.4 36.1 14.7zm-20.7 17.2h-.6c-2.1 0-4.1 1.8-4 4 .1 2.2 1.8 4 4 4h.7c2.1 0 4.1-1.8 4-4-.2-2.1-1.8-4-4.1-4zm13.9 25.7c-5.1 0-5.2 8 0 8 5.1 0 5.1-8 0-8zm25-10.5c-5.1 0-5.2 8 0 8 5.1 0 5.1-8 0-8zm12.9-4.5c-.7-.2-1.3-.4-2-.7-2-.7-4.5.8-4.9 2.8-.5 2.2.7 4.2 2.8 4.9.7.2 1.3.4 2 .7 2 .7 4.5-.8 4.9-2.8.5-2.2-.7-4.2-2.8-4.9zm-13.4-8.2c-1.1-.9-2.2-1.8-3.3-2.6-.9-.7-1.7-1.2-2.8-1.2-1 0-2.2.4-2.8 1.2-.7.8-1.2 1.8-1.2 2.8 0 1 .4 2.2 1.2 2.8 1.1.9 2.2 1.8 3.3 2.6.9.7 1.7 1.2 2.8 1.2 1 0 2.2-.4 2.8-1.2.7-.8 1.2-1.8 1.2-2.8-.1-.9-.4-2.1-1.2-2.8zm38.7 32.4c-5.1 0-5.2 8 0 8 5.1 0 5.1-8 0-8zm-40.9 19.1h-2.6c-2.1 0-4.1 1.8-4 4 .1 2.2 1.8 4 4 4h2.6c2.1 0 4.1-1.8 4-4-.1-2.1-1.7-4-4-4zm43.5 9.9c-5.1 0-5.2 8 0 8s5.2-8 0-8z" fill="#ffdf99"/><path class="st19" d="M783.3 240.1c-7.3-2-14.8-3.4-22.3-4.1-5.9 53.1-11.5 106.3-16.6 159.5 12.9-51.8 25.9-103.6 38.9-155.4zm-39.6-4.6c-6.4.2-12.8.9-19.1 2.1-14 49.4-20.1 100.7-26.2 151.8 7.4-53.2 22.7-105.2 45.3-153.9z" fill="#fff3f8"/><path class="st30" d="M525.9 689.7c29.8-20.2 56.6-44.8 79.2-72.7 16.5-20.3 31.1-42.6 50.8-59.8 14.8-12.9 32.2-22.5 49.6-31.6 9.5-4.9 19.4-9.8 30-11 10.7-1.2 22.4 2 28.8 10.6 6.4 8.6 4.9 22.9-4.6 27.9-5.4 2.9-2.1 11.4 1.1 16.7 2.5 4.1 7.2 6.2 10.9 9.2 9.3 7.3 13.1 20.8 8.9 31.8 6 7.3 10.5 18 13.7 26.8 5.7 15.5 4.9 32.5 4.1 49-.3 5.3-.6 10.8-3.2 15.4-2.3 4.2-6.3 7.2-10.1 10.1-7.7 5.8-15.3 11.5-23 17.3-6.3 4.7-17.7-.6-23.4-5.9-5.7-5.4-8.7-13.5-7.9-21.3-7.4 20.1-28.4 33.9-49.8 35.3-18.1 1.2-36.2-6.5-54.2-3.7-19.3 3-35.4 17.7-54.8 19.7-14.4 1.5-29-4.5-39.5-14.5-10.4-9.8-3.5-35.1-6.6-49.3z" fill="#8681bd"/><path class="st31" d="M613.9 665.5c-11.3-7.8-24.1-14.2-37.4-17.1-15.6 15.3-32.6 29.1-50.7 41.4 3.1 14.1-3.8 39.5 6.7 49.5s25.1 16 39.5 14.5c19.4-2 35.6-16.7 54.8-19.7 13.5-2.1 27.1 1.7 40.7 3.2-8.4-28.8-28.6-54.6-53.6-71.8zm163.7-55c-3.2 1.6-6.9 2-10.5 2.8-3.8.8-7.5 2.1-11 3.9-3.6 1.8-2.7 7.3 1.4 7.6 8 .6 15.9 3.9 22.4 8.6 7.4 5.4 13.2 12.5 18.2 20.2-.7-5.3-1.9-10.6-3.7-15.7-3.2-8.9-7.8-19.5-13.7-26.8.4-1.1.8-2.3 1-3.5-1.2 1.1-2.5 2.1-4.1 2.9zm-47.7-42.6c-5.1 5.8-.7 14.8 7 14.3 7.6-.5 15.3-1.1 22.9-1.6 4.8-.3 9.8-.6 14.3.7-.7-.7-1.5-1.5-2.3-2.1-3.8-3-8.4-5.1-10.9-9.2-3.2-5.3-6.6-13.8-1.1-16.7 4.3-2.3 7-6.5 8-11.3-14 6.8-28 14.7-37.9 25.9z" fill="#5b5a8c"/><path class="st17" d="M0 829.7V980h296.7S550 892.5 650.8 759c0 0-6.7-119.4-121-105.2.1 0-230.9 188.1-529.8 175.9z" fill="#383838"/><path class="st16" d="M650.9 759s-6.7-119.4-121-105.2c0 0-14.4 11.7-40.6 29.1 18-2.8 37 .1 53.3 8.3 24.5 12.2 42.8 35.2 51.3 61.1 6.6 20.2 7.4 42 3.4 62.9 20.3-17.7 38.6-36.4 53.6-56.2z" fill="#ef7c2e"/><path class="st32" d="M241.2 823.6c59.1-17.9 117.6-38.8 171.6-68.7 37.2-20.6 71.9-45.4 105.4-71.7-9.6-1.7-19.4-1.8-29-.3-78.9 52.3-265 156-489.3 146.8v23.7c80.2 12.8 163.1-6 241.3-29.8z" fill="#5b5b5b"/><path class="st33" d="M518.3 683.2c12.6-9.9 25.1-20.1 37.5-30.3-1.9-.1-3.8-.2-5.7-.2-3.2 0-6.4 0-9.8.2-3.4.2-6.8.5-10.4.9 0 0-.1.1-.2.1-1.7 1.4-15.9 12.7-40.4 29 9.5-1.5 19.4-1.4 29 .3z" fill="#ffac73"/><path class="st27" d="M595.9 759c-60.9 43.7-129 78.1-198.1 107.7C271.9 920.5 135.9 960.5 0 952.9V980h296.7s187.5-64.8 304.1-167.9c-1.2 1-2.3 2.1-3.5 3.1 3.5-18.6 3.3-37.9-1.4-56.2z" fill="#1c1c1c"/><path class="st34" d="M625.5 788.5c.4-.4.8-.8 1.1-1.2.7-.7 1.4-1.5 2.1-2.2.4-.4.7-.8 1.1-1.1.8-.8 1.5-1.7 2.3-2.5.2-.3.5-.5.7-.8l3-3.3c.2-.2.4-.4.6-.7.8-.9 1.6-1.8 2.3-2.7.3-.4.7-.8 1-1.2.6-.7 1.3-1.5 1.9-2.2.4-.4.7-.8 1.1-1.3.6-.7 1.2-1.5 1.8-2.2.3-.4.7-.8 1-1.3.6-.8 1.2-1.6 1.9-2.3.3-.4.6-.7.9-1.1.9-1.1 1.8-2.3 2.6-3.4 0 0-.8-14.1-6.5-32-.5-1.6-1-3.2-1.6-4.8-15.1 13-30.7 25.3-46.9 36.9 4.7 18.2 5 37.5 1.5 56.1 1.2-1 2.4-2.1 3.5-3.1.3-.3.6-.6.9-.8.9-.8 1.7-1.5 2.6-2.3.4-.3.8-.7 1.1-1 .8-.7 1.6-1.4 2.4-2.2.4-.3.8-.7 1.1-1 .8-.8 1.6-1.5 2.4-2.3.3-.3.6-.6 1-.9 1.1-1 2.1-2 3.2-3l.2-.2 3.3-3.3.8-.8 2.4-2.4 1.1-1.1c.7-.9 1.4-1.6 2.1-2.3z" fill="#bf6325"/><path class="st31" d="M750.9 684.6c-2.1-5-3.7-10.1-4.9-15.4 0-.1-.1-.2-.1-.3.3-.3.7-.6 1-.9 1.6-1.4 1.5-4.2 0-5.7-1.6-1.6-4-1.4-5.7 0-2.5 2.2-5.2 4.1-8.1 5.7-4.5 2.6-.4 9.5 4 6.9.6-.3 1.1-.7 1.7-1 .9 3.6 2.1 7.2 3.4 10.7-7.7 6.1-13.4 13.8-17 23.1-1.8 4.8 5.9 6.9 7.7 2.1 2.9-7.7 8-14.3 14.6-19.2.7 0 1.3-.2 1.8-.5 2.2-1.2 2.5-3.6 1.6-5.5z" fill="#5b5a8c"/><path class="st9" d="M613.7 172.2c-20.3 8.7-38.3 22.1-52.5 39-2.9 3.4 2.1 8.4 4.9 4.9 13.9-16.6 31.3-29.4 51.1-37.9 4.2-1.7.6-7.7-3.5-6zm-18-36c-11.3 6.8-22.6 13.5-33.9 20.3-3.9 2.3-.3 8.4 3.5 6 11.3-6.8 22.6-13.5 33.9-20.3 3.9-2.3.4-8.3-3.5-6zm308.9 7.3c-3.8-3-7.5-6-11.3-9-1.5-1.2-3.5-1.4-4.9 0-1.2 1.2-1.5 3.8 0 4.9 3.8 3 7.5 6 11.3 9 1.5 1.2 3.5 1.4 4.9 0 1.3-1.1 1.5-3.7 0-4.9zm30.9-9.6c-5.3-3.8-10.5-7.5-15.8-11.3-3.7-2.6-7.2 3.4-3.5 6 5.3 3.8 10.5 7.5 15.8 11.3 3.6 2.7 7.1-3.4 3.5-6zM754 50.3c-.6-4.4-7.4-2.6-6.8 1.9 4.2 29.6 7 59.4 8.4 89.3.2 4.5 7.2 4.5 7 0-1.4-30.5-4.3-60.9-8.6-91.2zM512.7 293.7c-12-2.3-24.1-4.5-36.1-6.8-4.4-.8-6.3 5.9-1.9 6.7 12 2.3 24.1 4.5 36.1 6.8 4.4.9 6.3-5.8 1.9-6.7zm43.8-24.6c-8.3-4.4-16.6-8.9-25-13.3-4-2.1-7.5 3.9-3.5 6 8.3 4.4 16.6 8.9 25 13.3 3.9 2.1 7.5-3.9 3.5-6zm490.6-101.2c-26.4 18-52.8 36-79.1 54-3.7 2.5-.2 8.6 3.5 6 26.4-18 52.8-36 79.1-54 3.8-2.5.3-8.5-3.5-6zm-36.9-31.2c-14.3 12-28.6 24.1-42.9 36.1-3.4 2.9 1.5 7.8 4.9 4.9 14.3-12 28.6-24.1 42.9-36.1 3.5-2.9-1.5-7.8-4.9-4.9zM501.4 370.5c-27.8-6-55.7-12-83.5-18.1-4.4-.9-6.3 5.8-1.9 6.8 27.8 6 55.7 12 83.5 18.1 4.4.9 6.3-5.9 1.9-6.8zm-9.6 75.2c-13.1-10.3-20.4-25.9-19.7-42.5.2-4.5-6.8-4.5-7 0-.7 18.3 7.4 36.1 21.7 47.4 3.5 2.9 8.5-2.1 5-4.9zm-34-2c-3.8-3-7.5-6-11.3-9-1.5-1.2-3.5-1.4-4.9 0-1.2 1.2-1.5 3.8 0 4.9 3.8 3 7.5 6 11.3 9 1.5 1.2 3.5 1.4 4.9 0 1.2-1.2 1.4-3.8 0-4.9zm512.9-150.6c-1.7-4.1-7.8-.6-6 3.5 8 18.9 13 38.8 15 59.2.4 4.4 7.4 4.5 7 0-2.2-21.6-7.5-42.6-16-62.7zm36.5 58.3c-1.8-17.3-5.6-34.2-11.4-50.6-1.5-4.2-8.3-2.4-6.8 1.9 5.6 15.8 9.4 32.1 11.2 48.7.5 4.4 7.5 4.4 7 0zm141 39c-57-6-114.9-1-170.1 14.4-4.3 1.2-2.5 8 1.9 6.7a450.56 450.56 0 01168.2-14.2c4.4.6 4.4-6.4 0-6.9zm-51.9 30.1c-25.6 2.2-51.2 4.4-76.7 6.6-4.5.4-4.5 7.4 0 7 25.6-2.2 51.2-4.4 76.7-6.6 4.4-.4 4.5-7.4 0-7z" fill="#ffeecb"/></svg>