<svg xmlns="http://www.w3.org/2000/svg" viewBox="0 0 1700 1400"><path fill="#FFF" d="M0 0h1700v1400H0z"/><path fill="#7E4CC8" d="M1118.2 1173.2l37.4-15.6h77.2l3 15.6z"/><path fill="#FF7473" d="M1184 1145.9l2.5-31.1h46.3v42.8h-77.2z"/><path fill="#2A284F" d="M1185.9 291.5c.5 10.7-12.2 18.6-11.9 29.3.2 6.2 4.8 11.5 6.2 17.6 2.4 9.9-3.8 20.7-.3 30.2 3 8.3 13.1 12.6 21.7 10.8 8.6-1.8 15.6-8.6 19.4-16.6 3.8-7.9 4.9-16.9 5.2-25.7.3-8.8-.1-17.6 1-26.4 1.4-11.1 5.3-21.9 5.7-33 .5-13-3.7-25.7-7.8-38.1-2.1-6.2-5.1-13.3-11.5-14.7-6-1.3-11.8 3.5-14.7 8.9s-4.3 11.7-7.6 16.8c-4.3 6.6-11.9 11.9-12.1 19.8-.5 7.5 6.3 13.6 6.7 21.1z"/><path fill="#FF7473" d="M1188.1 462.7c-22.1 22.2-49.1 39.5-78.5 50.1-11.9 4.3-26.7 7-36-1.7-7.4-6.9-7.9-18.2-7.9-28.3.5-58 8.4-117.4 20-174.2-3-8.7-5.9-17.5-8.9-26.2-2-6-4.1-12-4.3-18.3-.2-6.3 1.6-13 6.3-17.2 6.2-5.7 16.4-5.6 23.5-1.1s11.6 12.4 13.6 20.6 4.3 17.2 4.2 25.6c1.2-3.6 2.4-7.4 5.1-10.1 2.7-2.7 7.2-4.1 10.4-2 2.3 1.5 3.4 4.4 3.3 7.2s-1.2 5.4-2.4 7.8c-4.8 10-12.3 18.4-21.2 25-3 45.6-6.5 91.7-9.6 137.3 34.6-22.7 66-50.1 93.2-81.3-3.4 28.3-7.5 58.4-10.8 86.8z"/><path fill="#3F3F75" d="M1377.7 673.7l-36 441.1h-53l-7.3-381.9-43.7 381.9h-53.2l-1.9-441.1z"/><path fill="#7E4CC8" d="M1172.8 670c64.8 26.3 139 27.2 204.9 3.8 7.2-24.7-4.1-50.8-17.4-72.7-13.3-22-29.4-43.5-32.9-69-3.2-22.9 4.3-45.7 8.3-68.4 4-22.8 5.5-54.8-13.5-67.9-13-9-27.7-18.5-40.7-27.5l-80.9 4.2c-11.9 15.5-23.5 32.3-31.3 50.2s-11 38.6-4.6 57c4.9 14.2 14.9 25.9 21.5 39.4 11.1 22.6 11.9 49.2 7 74-4.9 24.6-10.4 53.7-20.4 76.9z"/><path fill="#FFC36A" d="M1218.3 647.3l123.3 78.7 36.1-89.1-93.8-59.8z"/><path fill="#F5AC5B" d="M1377.7 636.9c-43.7 20.2-93.7-11.7-93.8-59.8l93.8 59.8z"/><path fill="#FF7473" d="M1334.2 487.8c19.8 14.4 38.1 31 54.2 49.1-23.6 33.6-50.2 66.4-80.5 94-9.8-5.8-20.9-9.4-32.2-10.6-2.3-.2-4.7.2-6.7 1.4-6.5 4-3.1 11.3 1.9 13.7 3.9 1.8 8.6 3.9 12.8 3.6-9 5.8-16.1 15.2-16.9 25.9s6.1 22 16.5 24.3c8.6 1.9 17.4-2.2 24.7-7.2 10.5-7.1 15.5-20.2 26.1-27.3 34.5-23.2 65-52.4 89.6-85.9 7.9-10.7 15.4-22.5 16.9-35.8 1.5-13.2-3.4-26.4-10.7-37.5-7.4-11-17.2-20.2-26.9-29.2-26.1-24.2-53.6-45.6-79.7-69.9-4.3 5.6-6.7 10.8-9.5 17.3-11.3 26.5-2.7 57.3 20.4 74.1z"/><path fill="#DB4550" d="M1234 349.4c-5.5 4-11.9 6.8-18.6 8.1 3.3-6.6 4.8-14.2 3.8-21.2 10.9 0 22.2-4 31.3-10.1-2.8 9.4-8.7 17.4-16.5 23.2z"/><path fill="#FF7473" d="M1215.4 357.5c6.7-1.3 13.1-4.1 18.6-8.1 7.8-5.8 13.7-13.8 16.6-23.1-9.1 6.1-20.4 10-31.3 10.1-10.1.3-18.8-8.2-22.1-17.7-3.3-9.6-2.4-20-1.5-30.1 1.4-15.2 3.2-31.6 13.4-43.1 8.1-9.2 21.2-13.8 33.3-11.7 12.1 2.1 22.9 10.7 27.5 22.1 5 12.3 2.4 29.1-1.1 41.9-3.5 12.8-8.2 25.7-7.5 39 .7 13.3 7.3 28.6 20.2 31.4-8.4 16.2-24.8 27.9-42.9 30.4-8.6 1.2-17.8.4-25.3-4.1-7.5-4.4-13.5-13.5-12.8-22.2 6.4-2.7 11.6-8.2 14.9-14.8z"/><path fill="#3F3F75" d="M1313.1 352c2.1-6.1-1.4-12.6-5.3-17.8-3.9-5.2-8.4-10.4-8.9-16.8-.5-6.7 3.7-12.7 7.4-18.3s7.1-12.4 5.1-18.8c-2.5-7.9-12-11.2-17-17.8-4.5-5.9-5.1-13.8-6.1-21.2-1-7.4-3.1-15.4-9.2-19.6-4.9-3.3-11.3-3.4-17.2-2.7s-11.8 2-17.7 1.1c-6.1-1-12.4-4.4-18.2-2.2-5.6 2.1-8.1 8.5-10 14.1-1.7 5.3-3.5 10.7-3.2 16.2s3.3 11.3 8.5 13.2c3.3 1.3 7 .8 10.5 1s7.5 1.3 9.1 4.5c2.8 5.4-2.9 12.4-.2 17.8 1.9 3.7 6.8 4.8 9.4 8 2.6 3.2 2.4 7.8 1.5 11.8s-2.5 7.9-2.3 12c.3 5.8 4 10.8 5.5 16.3 2.1 7.6.1 15.6-1.5 23.4-1.6 7.7-2.7 16.2 1.1 23.1 2.8 5.3 8.3 9 14.3 9.7 5.9.7 12.2-1.8 16.1-6.3 3.7-4.3 5.3-10 9.1-14.2 5.8-6.3 16.4-8.4 19.2-16.5z"/><path fill="#7E4CC8" d="M1225.2 1173.2l37.5-15.6h77.1l3.1 15.6z"/><path fill="#FF7473" d="M1291 1145.9l2.5-31.1h46.3v42.8h-77.1z"/><path fill="#FFC36A" d="M861.6 501.8c11.4 113.8 0 233.7 0 233.7.8 5.8 3 12.5 3.8 18.3 1.5 11.1 3 22.7-.6 33.4s-14 19.9-25.1 18.3c-8.7-1.3-15.6-9-17.7-17.5-2.1-8.6-.3-17.7 3.2-25.8-.6 4.1-5 6.6-9.2 6.7-4.2.1-8.2-3.1-9-7.2-1-5.1 2.6-10 6.4-13.7 5.5-5.3 11.8-9.7 18.7-13 3.7-82.1-18.4-233-18.4-233h47.9z"/><path fill="#5F8D99" d="M825.5 359.2c36.1 40 47.5 117.6 46.3 142.6h-58.2l11.9-142.6z"/><path fill="#3F3F75" d="M607.7 642.9l-5.7 465.7h71.7l41-378.4 14.8 378.4h68.4L813.6 649z"/><path fill="#7FA3B0" d="M813.6 649c8.5-9.5 9.9-23.2 10.9-35.8 3.7-48.5 6.5-97.1 8.3-145.7 1.4-36.4 2.1-73.1-7.3-108.3-27.6-17-57.5-31.9-89.8-35-29.7-2.9-59.7 4.6-87 16.8-27.3 12.2-32.7 15.9-57.5 32.6 30.2 62.8 15.4 234.6 10.7 264.5-.9 5.5-1.9 11.1-.7 16.5s5.1 10.6 10.6 11.5c91-12.6 135.3-21.9 201.8-17.1z"/><path fill="#E5901F" d="M725.2 290.2c-7.4 4.9-17 7.8-26 7.8.3 4.4-.3 9.2-1.7 13.6 12.2-1.4 23.2-10 27.7-21.4z"/><path fill="#FFC36A" d="M734.7 316.9c-4.7-12.8-.9-27.1 3.7-40 4.6-12.9 10-26.2 8.3-39.8-1.4-11.2-7.8-21.6-17.2-27.8-9.4-6.2-20.8-7.5-31.6-4.3-11.5 3.3-19.9 13.7-23.6 25-3.7 11.3-3.4 23.6-2.4 35.5.7 8.1 1.9 16.6 6.4 23.4 4.5 6.8 13.1 11.6 20.9 9.1 8.9 0 18.5-2.9 26-7.8-4.5 11.4-15.5 20-27.6 21.4-1 3.2-2.3 6.3-4.1 9-4.1 6.5-10.3 11.6-17.4 14.4 8.5 14.5 24.9 23.6 41.7 23.3 16.8-.3 33.1-10.2 41.1-25-9.2-1.7-20.9-7.5-24.2-16.4z"/><path fill="#2A284F" d="M735.3 286.1c-2.2-3.9-3.1-8.9-2.4-13.3 5.6-2.7 9.1-9.1 8.6-15.3-.2-2.2-1.1-4.6-3.1-5.4-2.1-.8-4.5.6-5.7 2.5-1.2 1.9-1.5 4.6-1.7 6.9-.9-.5-1.4-1.4-1.7-2.4-.3-1-.3-2-.3-3 0-3.2.6-6.5 1.3-9.6-10.2-6-16.5-16.5-17.8-28.2-13.2 13-31 21.3-49.5 23-.2-10.2.1-21.3 4.3-30.6 5.3-11.8 16.8-20.6 29.6-22.6 7.9-1.2 16.4.2 22.5 5.3 10.1-4.2 22.1.1 29.6 8s10.8 19 11.3 29.9c1.1 20.9-9 41.5-25 54.8z"/><path fill="#5F8D99" d="M591.3 373.5C548.7 411.1 545 515.3 545 515.3h82c.1 0 4.9-141.8-35.7-141.8z"/><path fill="#FFF" d="M749.2 601.9H707l-9.7-100.1h61.6z"/><path fill="#FFC36A" d="M555.3 515.3c-3.5 19.7-3.1 40.5-1.2 60.4 1 9.8 2.8 20.1 9 27.7 6.9 8.4 18.1 12.1 28.9 12.4 10.8.2 21.4-2.6 31.9-5.5 27.5-7.5 55-15 82.6-22.5 5.5-1.5 13 1 18.7.6 5.7-.4 11.5-2.7 14.8-7.4 4-5.7 3.4-13.3 2.6-20.2-.6-5.4-1.2-10.9-3.5-15.8s-6.5-9.3-11.8-10.2c-6-1.1-11.8 2.2-17 5.3-2.1 1.3-5.4 1.6-7.7 2.6-.6-3.6-1.9-6.7-2.4-10.3-6.8 7.2-11.6 16.8-12.4 26.7-23.3 10.7-48.9 16.8-74.6 16.5-3.4-18.6-1.5-41.6.6-60.3h-58.5z"/><path fill="#2A284F" d="M665.2 1125.2v-16.6h-57.7v53.2h112.7z"/><path fill="#FFC15F" d="M607.5 1161.8v11.4h129.8l-17.1-11.4z"/><path fill="#2A284F" d="M795 1125.2v-16.6h-57.7v53.2H850z"/><path fill="#FFC15F" d="M737.3 1161.8v11.4h129.8l-17.1-11.4z"/><path fill="#5F8D99" d="M911.2 1136.4h60.2V1114h-62.1zm105.9-22.4l2.9 22.4h62l-.7-22.4z"/><path fill="#7FA3B0" d="M1069.5 697.5L875 706.2l34.3 407.8h62.1V751.5l45.7 362.5h64.2z"/><path fill="#5F8D99" d="M1068.3 654.9l-196.2 16.8 2.9 34.5 194.5-8.7z"/><path fill="#3F3F75" d="M872.1 385.4c-16.2 20.3-25.8 45.4-30.8 71-5.3 27.1-5.9 54.8-6.3 82.4-25.1 17.2-54.3 29-84.5 31.9-6.9.7-13.2 4.1-17.3 9.7-.1.1-.1.2-.2.2-3.8 5.2-5.3 11.8-4.2 18.1 1.2 7 2.5 14 3.7 21 .9 5.3 3.6 10.1 7.6 13.7 3.1 2.8 6.3 5.7 9.5 8.5 6 5.4 14.3 7.4 22.1 5.3 29-7.9 56.1-19.8 81.8-35.8 2.5-43.8 3.1-87.9 5.5-131.7 1.8-31.7 3.8-64 13.1-94.3zm276.6 155.9c-2.3-17.4-14-32-20.3-48.4-13.1-34.4-2-76-21.1-107.4-4.1-6.7-9.4-12.5-15.4-17.4-21.1 17.3-33.6 45.2-31.5 72.5 1.2 15.9 6.8 31 12.3 46 5.5 14.9 10.2 31 15.7 45.9-7.3 6.9-18.3 8.3-28.2 7.3-10-1-19.7-4-29.8-4.3-10-.4-21 2.5-26.9 10.6-5.6 7.7-5.3 18.1-4.7 27.6.5 8.6 1.4 18.1 7.4 24.2 7.3 7.4 19.1 7.2 29.5 6.5 17.7-1.2 35.3-3.8 53-5.1 16.9 0 30.6-5.8 42.9-15.7 12.5-10 19.2-26.6 17.1-42.3z"/><path fill="#2A284F" d="M1006.3 597.8c-6.1-6.2-6.9-15.6-7.4-24.2-.6-9.5-.9-19.9 4.7-27.6 5.9-8.1 16.8-11 26.9-10.6 10 .4 19.8 3.4 29.8 4.3 10 1 21-.4 28.2-7.3-5.5-14.9-10.2-31-15.7-45.9-5.5-14.9-11.1-30.1-12.3-46-2-27.3 10.4-55.2 31.5-72.5-9.2-7.5-20.2-13.1-31.5-16.8-18.8-6.2-39.6-10.6-59.1-13.8-27.6-4.5-54.1 8.4-54.1 8.4-27.6.2-54.1 15.1-72.1 36l-3 3.6c-9.3 30.2-11.3 62.6-13 94.4-2.5 43.8-3.1 87.9-5.5 131.7-2.8 12.6-3.4 27.9-1.9 40.8 1.4 12.9 7.9 25.9 19.4 31.8 8.5 4.4 18.5 4.4 28 4.3l132.6-1.2c13.5-.1 27.5-.4 39.6-6.3 12.9-6.3 20.9-23.2 17.6-37.2-3.2-13.7-4.6-32.1 0-44.6-17.7 1.2-35.3 3.8-53 5.1-10.6.9-22.4 1.1-29.7-6.4z"/><path fill="#E5901F" d="M983 309.9c-13.2 6-28.6 6.7-42.3 2.3 2.9 3 6.3 5.6 8.7 9.1 1.8 2.7 2.9 5.9 3.1 9.1 3.4-.7 6.8-1.7 10-3.1 8.4-3.5 15.3-10 20.5-17.4z"/><path fill="#FFC36A" d="M1009.2 267.1c1-16.2-4.8-37.4-19.4-44.6-8.5-4.2-18.5-5.1-27.7-2.6-9.1 2.5-17.3 8.5-22.4 16.4-8.6 13.3-8.4 30.3-7.8 46.1.3 9.6.9 19.9 6.8 27.5.6.8 1.3 1.5 2 2.3 13.7 4.4 29.1 3.7 42.3-2.3-5.2 7.4-12.1 13.9-20.4 17.5-3.2 1.4-6.6 2.4-10 3.1.4 5.6-1.4 11.4-5.4 15.4 3.7 7.8 8 15.8 11.8 23.6 11.7-13.4 26.2-24.4 42.3-32-5.6-10.5-3.9-24.2-.8-35.7 3.2-11.6 7.9-22.8 8.7-34.7z"/><path fill="#FFF" d="M974.7 612.6h-42.1l-9.8-100.1h61.6z"/><path fill="#FFC36A" d="M982.4 533.7l-1.7 17.1c-4.2 3.3-11 2.8-16.2 1.5-5.2-1.3-10.4-3.4-15.7-3.2-8.2.2-15.8 6.2-18.6 13.9-2.8 7.7-1.1 16.8 3.7 23.4 4.9 6.6 12.6 10.9 20.7 12.3 8.1 1.4 16.5 0 24.2-3.1 5.1-2.1 10-5 15.2-6.9 5.2-1.9 11.1-2.9 16.3-.9 4.6-3.7 8.2-9.3 9.3-15.1 1.1-5.8.1-12-2.8-17.1-5.2 3.2-12.9 2.3-17.6-1.6-3.4-2.8-5.3-7-7.5-10.8s-4.9-9.5-9.3-9.5zm-231.3 93.6c5.7-4.9 8.5-12.9 7.1-20.3s-6.8-13.8-13.8-16.4c-4.1 4.4-10.6 5.9-16.5 4.8-5.9-1.1-11.3-4-16.8-6.6s-11.2-5-17.2-4.9c-2.2 0-4.4.4-6.2 1.6s-3.1 3.3-2.9 5.5c.3 3.5 4.2 5.5 7.5 6.8 4.3 1.7 7.1 1.1 11.4 2.8-8.5 2.3-15.7 7.5-22.6 13.1-6.9 5.5-12 13.9-11.7 22.8.3 8.8 7 17.6 15.8 18.4 6.5.6 12.7-2.9 17.6-7.2 4.9-4.3 8.9-9.5 14-13.6 9.2-7.3 22.8-9.1 34.3-6.8z"/><path fill="#E75459" d="M935.1 234.3c6 6.4 18.1 11.1 26.8 10.5 7.8-.5 15.6-2.1 23.2-.5.1 3.4.6 6.7.7 10.1.1 2.1.1 4.2 1 6.1s2.8 3.4 4.9 3.2c-2.3 4.3-1.9 10.1-.1 14.6.5-1.9 1.5-3.9 2.6-5.5 1.7-2.4 5-4 7.9-1.4.7.6 1.3 1.5 1.6 2.3 1.1 2.8.3 5.8-.6 8.6-.8 2.3-1.8 4.6-3.5 6.3-1.8 1.7-4.5 2.5-6.7 1.3 1.2 1.8 2.2 3.8 3.2 5.8 1.7 3.5 6.5 4.2 9 1.2 10.3-12 20-25 22.8-40.4 1.1-5.8 1.1-12-1-17.6s-6.4-10.5-12-12.3c-2-8.7-8.2-16.4-15.4-21.6-7.2-5.2-16.3-7.8-25.1-7-6.8.6-13.3 3-20.1 3.1-4.5.1-8.9-.9-13.4-1.5s-9.1-.9-13.3.5c-4.3 1.4-8.1 4.8-9 9.2-.6 3.2.4 6.6 2.2 9.3 1.7 2.8 4.1 5.1 6.5 7.3l7.8 8.4z"/><path fill="#2A284F" d="M911.2 1136.4l-67.6 36.8H977l-5.6-36.8z"/><path fill="#3F3F75" d="M1020 1136.4l-65.6 36.8h133.5l-5.9-36.8z"/><path fill="#DB4550" d="M519.5 822.7l7.9-62-70.6-5.7-2 61.9c4.5 1 9 2 13.4 3 16.6 4.1 34.5 5.7 51.3 2.8z"/><path fill="#FF7473" d="M519.5 822.7c-16.8 2.9-34.7 1.3-51.3-2.8-4.4-.9-8.9-1.9-13.4-3l-10.5 319.5-3.7 20.5h79.6l-40.6-20.5 39.9-313.7z"/><path fill="#2A284F" d="M520.2 1156.9h-79.6l-.5 2.7 27 13.6h85.4z"/><path fill="#3F3F75" d="M434.8 1156.9h-79.4l-2.7 16.3h114.4l-27-13.6z"/><path fill="#DB4550" d="M358.9 728.7v79.1c22.9-5.2 47.2-1.7 71.5 3.5l7.3-65.5-78.8-17.1z"/><path fill="#FF7473" d="M358.9 807.9v328.5l-3.5 20.5h79.4l-40.6-20.5 36.2-325.1c-24.3-5.2-48.6-8.6-71.5-3.4z"/><path fill="#FFF" d="M698.7 523.8h-42.1l-9.7-100.1h61.6z"/><path fill="#FF7473" d="M637.7 506.3c-23.4 15-49 26.4-75.7 33.7-9 2.5-19.2 4.3-27.2-.5-8.4-5.1-11.2-15.7-13.3-25.3-5.4-24.6-9.6-49.8-15-74.4 5.6-3 8.4-9.5 9-15.8.6-6.3-.8-12.6-1.4-18.9-2.2-23.1 6.3-45.1 21.5-62.6 13.7 45 20.1 94 16 140.9-.6 6.8-.9 14.9 4.5 19.2 5.1 4 12.4 2.4 18.6.5 21.9-6.5 43.9-13 65.8-19.5.1-2.3.9-4.5 2-6.6 1.9-3.6 5.2-6.2 8.5-8.7 4.5-3.5 8.9-7 13.4-10.5 2-1.5 4.2-3.2 6.7-2.9 3 .3 5.2 3.3 5.1 6.3 0 3-1.9 5.7-4.2 7.5-2.3 1.8-5.2 2.9-7.9 4 4.4 6.7 3.3 17.4-2.3 23.1-3.2 3.2-7.5 5-11.7 6.8-3.8 1.5-9 1.5-12.4 3.7z"/><path fill="#6A3EB8" d="M483.8 211.5c9.1-2 18.5 5.9 21.5 14.7 3 8.9 1.7 18.6.5 27.9-3.7 30.9-4.5 62.2-2.4 93.3-13.1-6.1-27.5-9.6-41.8-11.8-.7-11.8-2.9-23.3-3.5-35.1-.7-14.4-1.4-28.9 1.6-43 3.7-16.8 11.5-34.2 24.1-46z"/><path fill="#FFC15F" d="M539.6 785.1c-16.9 12.4-39.3 14.4-60.1 11.8-20.7-2.6-40.7-9.4-61.3-13.2-24.5-4.5-53.1-5.6-77.6-1.3 9.8-66.6-21.5-137.3 1.8-200.4 10-27.1 29.2-50 39.4-77 17-45.2 6.3-103.2-28.4-136.9 16.1-19.6 39.3-35 62.8-44.5l39 6.1 39-12.7c13.2 8.8 28 16.7 41.2 25.5-7.9 11-6.2 27.9-2.6 41 3.6 13.1 9.1 26 8.5 39.6-1.5 34.6-40.5 56.3-49.2 89.8-6.7 25.8 5.9 52.1 15.6 76.9 23.9 60.2 39.9 131 31.9 195.3z"/><path fill="#DB4550" d="M449.2 285.9c5.6 8.5 14.3 14.3 24 16.6-.2-1.5-.1-3 .3-4.4 1.5-5.9 7.2-9.3 11.7-13.5-11.6 3.5-24.2 4-36 1.3z"/><path fill="#FF7473" d="M473.2 302.6c-9.7-2.4-18.5-8.2-24-16.6 11.9 2.7 24.4 2.1 36-1.3 1.1-1 2.1-2.1 3-3.3 4.2-5.6 4.7-13.1 5-20.1.4-8.1.8-16.3-1.5-24.1-2.3-7.8-7.7-15.1-15.4-17.3-15.2-4.5-32.2 10.3-36.8 25.5-2.9 9.6-1.8 20-.6 30 1.2 10 2.3 20.4-.6 30-3 9.6-12.2 15.4-22 18.3 6.2 16.7 24.2 28.3 42 27 17.8-1.3 32.5-16.1 36.1-33.6-4.2-1.8-10.1-2-15.1-4.7-3.5-2.1-5.6-5.9-6.1-9.8z"/><path fill="#7E4CC8" d="M481.3 227.5c-4.7 15.1-18.7 26.8-34.3 28.7-1.4 14-2.7 28.1-4.1 42.2-1.3 13.5-2.7 27.1-1.5 40.6.5 5.7 1.4 11.3 1.2 17-.2 5.7-1.6 11.5-5.2 15.9s-9.8 6.8-15.2 5c4.6-15.8-3.4-36.6-12.2-50.4 1.4-19.8 3.6-40.2 5-60.1.9-12.2 1.8-24.7 7.3-35.6 7.6-15 23.9-25.1 40.7-25.2 7.3 0 14.8 1.8 20.8 6.1 1.1 5.5-.8 10.3-2.5 15.8z"/><path fill="#FF7473" d="M385 418.5c-29.7 22.3-59.7 44.7-85.1 71.7 18.6 13.5 37.9 28.9 56.5 42.4 6.4-7.3 15-12.9 24.5-14.8 9.5-1.9 20 .1 27.5 6.2 7.5 6.2 11.5 16.6 9.2 26-1.3 5-4.7 9.8-9.8 10.8-4 .7-8-1.1-12.1-1.7-6.4-.9-12.8 1.4-18.8 3.7-1 .4-2 .7-3 1-11.4 3.3-23.7 1.6-34.2-4-13.9-7.5-27.7-15-41.6-22.5-8.7-4.7-17.5-9.5-24.8-16.1S260.2 505.8 259 496c-1.9-17 10.1-32.1 21.4-45 23.9-27.3 48.9-55.5 72.9-82.8 11.1 2.5 21 8.5 27.1 18 6.4 9.4 6.8 21.1 4.6 32.3zm326.4 48.7c.5-2 1-4.1.9-6.2-.1-2.1-.8-4.3-2.3-5.7-2.9-2.7-8-1.8-10.8 1-2.9 2.8-4.1 6.8-4.9 10.7-.9 4.2-1.4 8.4-1.6 12.6-.1 2.5-.1 5.1.9 7.3 1 2.3 3.3 4.1 5.8 3.9 3.3-.3 5.3-3.8 6.6-6.9 2.1-5.4 3.9-11 5.4-16.7z"/><g fill="#2A284F"><path d="M1279.3 1199.2H1253c-3.6 0-6.5 2.9-6.5 6.5s2.9 6.5 6.5 6.5h26.3c3.6 0 6.5-2.9 6.5-6.5s-2.9-6.5-6.5-6.5zm-972 0h-21.2c-3.6 0-6.5 2.9-6.5 6.5s2.9 6.5 6.5 6.5h21.2c3.6 0 6.5-2.9 6.5-6.5s-2.9-6.5-6.5-6.5zm-42.2-26h-21.2c-3.6 0-6.5 2.9-6.5 6.5s2.9 6.5 6.5 6.5h21.2c3.6 0 6.5-2.9 6.5-6.5s-3-6.5-6.5-6.5zm1093.9 26h-48.3c-3.6 0-6.5 2.9-6.5 6.5s2.9 6.5 6.5 6.5h48.3c3.6 0 6.5-2.9 6.5-6.5s-2.9-6.5-6.5-6.5zm97.2-26h-7.1c-3.6 0-6.5 2.9-6.5 6.5s2.9 6.5 6.5 6.5h7.1c3.6 0 6.5-2.9 6.5-6.5s-2.9-6.5-6.5-6.5z"/><path d="M1221.1 1199.2H1127c-3.6 0-6.5-2.9-6.5-6.5s2.9-6.5 6.5-6.5h300c3.6 0 6.5-2.9 6.5-6.5s-2.9-6.5-6.5-6.5H290.9c-3.6 0-6.5 2.9-6.5 6.5s2.9 6.5 6.5 6.5h86.3c3.6 0 6.5 2.9 6.5 6.5s-2.9 6.5-6.5 6.5h-27.9c-3.6 0-6.5 2.9-6.5 6.5s2.9 6.5 6.5 6.5h871.9c3.6 0 6.5-2.9 6.5-6.5-.1-3.6-3-6.5-6.6-6.5z"/></g></svg>